<?xml version="1.0" encoding="utf-8"?>
<!-- Generator: Adobe Illustrator 16.0.0, SVG Export Plug-In . SVG Version: 6.00 Build 0)  -->
<!DOCTYPE svg PUBLIC "-//W3C//DTD SVG 1.1//EN" "http://www.w3.org/Graphics/SVG/1.1/DTD/svg11.dtd">
<svg version="1.1" id="Layer_2" xmlns="http://www.w3.org/2000/svg" xmlns:xlink="http://www.w3.org/1999/xlink" x="0px" y="0px"
	 width="1020.47px" height="1133.86px" viewBox="0 0 1020.47 1133.86" enable-background="new 0 0 1020.47 1133.86"
	 xml:space="preserve">
<g>
	<text transform="matrix(1 0 0 1 424.3076 306.5957)" fill="#FFFFFF" font-family="'BaronNeueBlack'" font-size="364.1298">a</text>
	<g id="X_1_">
		<g>
			<path fill-rule="evenodd" clip-rule="evenodd" fill="#FFFFFF" d="M937.719,958.898l50.263,6.682l-13.364-33.558l-130.224-66.448
				L216.79,238.007l60.063-20.845L23.995,75.411l141.788,252.801l20.844-60.007l293.395,293.413L175.974,865.574L45.786,932.022
				L32.348,965.58l50.338-6.682l-57.057,36.898l-1.634,51.973l51.972-1.707l36.842-56.984l-6.663,50.301l33.502-13.438
				l66.542-130.187l304.03-304.03l303.994,304.03l66.521,130.187l33.521,13.438l-6.684-50.301l36.9,56.984l51.934,1.707
				l-1.67-51.973L937.719,958.898z M564.086,537.822l269.728-269.617l20.827,60.007L996.408,75.411L743.569,217.162l60.064,20.845
				l-269.73,269.69L564.086,537.822z"/>
		</g>
	</g>
	
		<text transform="matrix(1 0 0 1 41.7285 658.0654)" fill="#FFFFFF" stroke="#FFFFFF" stroke-width="0.25" stroke-miterlimit="10" font-family="'BaronNeueBlack'" font-size="297.9244">H</text>
	<text transform="matrix(1 0 0 1 390.626 1045.7637)" fill="#FFFFFF" font-family="'BaronNeueBlack'" font-size="397.2323">O</text>
	<text transform="matrix(1 0 0 1 778.3555 678.7246)" fill="#FFFFFF" font-family="'BaronNeueBlack'" font-size="331.0269">P</text>
</g>
</svg>
